<svg id="svg" xmlns="http://www.w3.org/2000/svg" xmlns:xlink="http://www.w3.org/1999/xlink" width="400" height="400" viewBox="0, 0, 400,400"><g id="svgg"><path id="path0" d="M0.000 200.000 L 0.000 400.000 200.000 400.000 L 400.000 400.000 400.000 200.000 L 400.000 0.000 200.000 0.000 L 0.000 0.000 0.000 200.000 M385.494 11.425 C 387.766 12.914,387.609 -1.089,387.609 200.474 C 387.609 325.163,387.476 386.284,387.205 386.555 C 386.982 386.778,386.800 387.269,386.800 387.647 C 386.800 388.025,386.192 388.711,385.448 389.170 L 384.096 390.006 198.059 389.903 L 12.022 389.800 11.183 388.960 C 10.721 388.499,10.179 387.419,9.979 386.560 C 9.563 384.779,9.442 16.521,9.856 14.365 C 10.345 11.821,11.366 10.856,13.713 10.720 C 23.294 10.167,384.620 10.852,385.494 11.425 M169.600 81.398 C 167.950 81.916,165.160 82.639,163.400 83.004 C 158.468 84.030,154.800 85.495,154.800 86.440 C 154.800 86.638,154.530 86.800,154.200 86.800 C 153.870 86.800,153.600 86.939,153.600 87.109 C 153.600 87.279,152.939 87.774,152.131 88.209 C 150.547 89.062,148.400 91.031,148.400 91.631 C 148.400 91.834,148.222 92.000,148.005 92.000 C 147.549 92.000,146.195 93.038,145.133 94.200 C 144.731 94.640,143.456 96.010,142.301 97.244 C 141.145 98.478,139.844 100.188,139.408 101.044 C 138.973 101.900,137.983 103.506,137.208 104.614 C 135.366 107.249,134.871 108.034,134.445 109.000 C 133.844 110.362,132.730 111.022,129.000 112.226 C 127.020 112.865,124.654 113.886,123.742 114.494 C 122.830 115.102,121.883 115.600,121.637 115.600 C 121.390 115.600,120.877 115.753,120.495 115.939 C 118.300 117.012,117.489 117.565,115.856 119.100 C 114.861 120.035,113.940 120.800,113.810 120.800 C 113.456 120.800,111.200 123.177,111.200 123.550 C 111.200 123.727,110.525 124.497,109.700 125.262 C 108.293 126.566,107.825 127.308,106.213 130.800 C 105.857 131.570,105.190 132.830,104.731 133.600 C 103.094 136.341,101.878 144.138,102.349 148.873 C 102.487 150.263,102.510 152.525,102.400 153.900 L 102.200 156.400 99.040 159.400 C 97.302 161.050,95.727 162.400,95.540 162.400 C 95.353 162.400,95.200 162.580,95.200 162.800 C 95.200 163.020,94.960 163.200,94.668 163.200 C 94.375 163.200,93.881 163.695,93.570 164.300 C 93.259 164.905,92.153 166.300,91.113 167.400 C 90.072 168.500,88.659 170.480,87.973 171.800 C 87.287 173.120,86.517 174.380,86.263 174.600 C 85.634 175.143,84.118 178.324,83.784 179.800 C 83.292 181.970,81.895 186.592,81.607 187.000 C 79.878 189.448,79.303 205.874,80.818 209.519 C 81.028 210.024,81.200 210.857,81.200 211.370 C 81.200 211.883,81.451 212.510,81.758 212.765 C 82.065 213.020,82.402 213.807,82.508 214.514 C 82.614 215.221,83.083 216.787,83.550 217.994 C 84.018 219.201,84.400 220.435,84.400 220.737 C 84.400 221.038,84.943 221.970,85.606 222.807 C 86.269 223.644,87.085 224.930,87.418 225.665 C 87.752 226.399,88.377 227.540,88.807 228.200 C 91.214 231.897,91.592 234.674,90.033 237.207 C 89.355 238.310,88.794 239.614,88.786 240.106 C 88.778 240.598,88.511 242.080,88.192 243.400 C 86.478 250.497,87.905 262.064,91.145 267.349 C 92.275 269.191,93.200 270.992,93.200 271.350 C 93.200 271.707,94.145 272.966,95.300 274.147 C 96.455 275.328,98.010 276.948,98.756 277.747 C 99.502 278.546,100.363 279.200,100.669 279.200 C 100.975 279.200,101.329 279.470,101.455 279.800 C 101.582 280.130,101.843 280.400,102.036 280.400 C 102.228 280.400,102.995 280.992,103.740 281.715 C 104.485 282.439,105.883 283.358,106.847 283.759 C 107.811 284.159,109.078 284.737,109.662 285.043 C 110.246 285.349,110.989 285.600,111.313 285.600 C 111.637 285.600,112.102 285.841,112.346 286.135 C 113.267 287.245,117.249 287.722,125.183 287.675 C 133.214 287.627,134.400 287.866,134.400 289.534 C 134.400 289.737,134.670 290.126,135.000 290.400 C 135.330 290.674,135.600 291.175,135.600 291.514 C 135.600 292.075,137.827 295.926,138.426 296.400 C 138.565 296.510,139.140 297.433,139.704 298.451 C 140.777 300.388,145.120 304.956,147.821 306.988 C 148.690 307.641,149.694 308.541,150.054 308.988 C 150.790 309.902,154.972 312.081,157.400 312.817 C 158.280 313.083,159.270 313.522,159.600 313.793 C 161.550 315.390,172.938 317.823,176.555 317.415 C 182.922 316.697,183.295 315.474,183.202 295.635 C 183.109 275.919,182.780 274.605,177.691 273.601 C 176.431 273.353,175.220 273.099,175.000 273.038 C 174.780 272.976,173.970 273.307,173.200 273.772 C 172.430 274.237,171.325 274.859,170.744 275.153 C 168.531 276.274,167.895 279.422,168.027 288.600 C 168.144 296.748,167.970 297.896,166.385 299.414 L 165.257 300.495 164.129 299.710 C 163.508 299.278,162.135 298.500,161.077 297.980 C 157.601 296.272,150.076 288.150,149.526 285.512 C 147.970 278.049,145.768 272.236,143.802 270.400 C 142.473 269.159,136.341 268.931,134.200 270.043 C 129.300 272.589,128.647 272.791,125.081 272.857 C 122.875 272.897,121.390 272.750,121.101 272.461 C 120.847 272.207,120.299 272.000,119.882 272.000 C 119.465 272.000,118.646 271.747,118.062 271.438 C 117.478 271.129,115.837 270.398,114.416 269.813 C 112.995 269.229,111.254 268.176,110.546 267.475 C 109.839 266.774,108.786 265.766,108.207 265.236 C 107.628 264.706,106.870 263.716,106.522 263.036 C 106.175 262.356,105.403 261.170,104.807 260.400 C 103.375 258.549,102.800 256.032,102.800 251.617 C 102.800 248.146,103.049 247.147,104.308 245.559 C 104.910 244.801,108.252 244.931,110.200 245.788 C 112.475 246.789,113.408 247.146,116.000 248.005 C 117.430 248.480,118.780 249.005,119.000 249.172 C 120.016 249.944,127.262 251.200,130.698 251.200 C 133.255 251.200,135.800 249.604,137.520 246.924 C 141.101 241.345,136.137 235.678,127.600 235.599 C 123.974 235.565,114.151 232.167,112.600 230.409 C 112.160 229.911,110.794 228.818,109.565 227.981 C 108.336 227.144,107.030 225.999,106.662 225.438 C 106.294 224.876,105.478 224.151,104.849 223.825 C 104.220 223.500,103.100 222.281,102.361 221.117 C 101.622 219.953,100.806 218.780,100.548 218.511 C 99.657 217.581,98.508 215.393,97.864 213.400 C 97.509 212.300,96.719 209.960,96.109 208.200 C 94.732 204.228,94.501 194.049,95.736 191.800 C 96.098 191.140,96.401 190.330,96.409 190.000 C 96.443 188.492,98.794 182.704,100.125 180.852 C 100.936 179.722,101.600 178.711,101.600 178.604 C 101.600 176.913,112.586 167.600,114.579 167.600 C 114.907 167.600,116.575 166.896,118.287 166.036 C 121.667 164.338,125.049 163.416,129.352 163.020 C 133.684 162.622,134.956 161.889,137.649 158.240 C 139.923 155.158,138.847 151.296,135.084 149.037 L 132.600 147.545 129.000 147.789 C 127.020 147.924,123.958 148.133,122.196 148.254 C 119.291 148.454,118.920 148.395,118.229 147.632 C 117.190 146.484,117.294 141.799,118.386 140.600 C 118.786 140.160,119.586 138.885,120.163 137.768 C 120.741 136.650,122.014 134.850,122.993 133.768 C 123.972 132.685,124.779 131.665,124.787 131.500 C 124.794 131.335,124.988 131.200,125.217 131.200 C 125.447 131.200,126.120 130.750,126.713 130.200 C 127.307 129.650,127.959 129.200,128.164 129.200 C 128.369 129.200,128.821 128.948,129.169 128.641 C 130.982 127.034,133.061 126.317,136.977 125.948 C 141.190 125.550,144.000 124.905,144.000 124.336 C 144.000 124.151,144.270 124.000,144.600 124.000 C 144.930 124.000,145.200 123.789,145.200 123.531 C 145.200 123.274,145.452 122.779,145.759 122.431 C 146.648 121.428,148.088 118.709,148.423 117.400 C 149.032 115.027,150.411 111.791,150.999 111.356 C 151.330 111.112,151.600 110.707,151.600 110.456 C 151.600 110.205,151.768 110.000,151.973 110.000 C 152.178 110.000,152.455 109.657,152.588 109.237 C 152.722 108.817,153.719 107.512,154.805 106.337 C 155.890 105.162,156.783 104.065,156.789 103.900 C 156.795 103.735,157.070 103.600,157.400 103.600 C 157.730 103.600,158.000 103.420,158.000 103.200 C 158.000 102.980,158.188 102.800,158.417 102.800 C 158.646 102.800,159.051 102.620,159.317 102.399 C 160.721 101.235,164.848 98.400,165.139 98.400 C 166.278 98.400,167.532 100.347,167.943 102.756 C 169.469 111.691,178.480 114.388,181.990 106.960 L 183.200 104.398 183.200 95.394 C 183.200 85.968,183.161 85.723,181.300 83.624 C 180.805 83.065,180.400 82.465,180.400 82.290 C 180.400 80.544,174.004 80.016,169.600 81.398 M218.800 80.800 C 218.470 81.013,217.889 81.191,217.508 81.194 C 216.428 81.203,213.456 84.669,212.929 86.534 C 211.396 91.956,213.068 107.125,215.463 109.520 C 216.851 110.908,221.539 111.637,222.400 110.600 C 222.674 110.270,223.131 110.000,223.415 110.000 C 225.213 110.000,228.000 104.811,228.000 101.462 C 228.000 100.346,228.243 99.925,229.258 99.282 L 230.517 98.485 233.553 100.343 C 237.264 102.613,237.693 102.935,240.022 105.200 C 241.834 106.962,245.200 111.286,245.200 111.851 C 245.200 112.008,245.437 112.421,245.726 112.769 C 246.015 113.116,246.489 114.390,246.779 115.600 C 247.386 118.127,248.634 120.800,249.208 120.800 C 249.424 120.800,249.600 121.070,249.600 121.400 C 249.600 121.730,249.751 122.000,249.936 122.000 C 250.120 122.000,250.477 122.450,250.728 123.001 C 251.542 124.787,253.278 125.476,257.724 125.773 C 261.714 126.041,264.871 126.854,265.931 127.887 C 266.223 128.172,266.853 128.613,267.331 128.867 C 274.376 132.615,280.457 143.401,277.806 147.447 C 277.056 148.592,277.260 148.587,266.741 147.758 C 257.949 147.065,253.978 154.197,259.840 160.153 C 262.074 162.423,262.406 162.532,269.800 163.419 C 272.865 163.786,275.487 164.792,283.400 168.636 C 286.526 170.155,291.921 174.970,293.709 177.836 C 294.270 178.736,295.017 179.760,295.369 180.112 C 296.277 181.020,297.959 184.483,298.260 186.063 C 298.400 186.799,298.759 187.886,299.057 188.480 C 299.356 189.074,299.600 189.932,299.600 190.386 C 299.600 190.839,299.761 191.523,299.958 191.905 C 301.445 194.792,301.142 203.446,299.352 209.200 C 297.336 215.678,296.747 217.017,295.174 218.700 C 294.528 219.391,294.000 220.151,294.000 220.389 C 294.000 221.542,282.974 231.275,280.692 232.137 C 280.201 232.322,279.260 232.714,278.600 233.007 C 276.471 233.954,271.007 235.249,266.069 235.976 C 260.998 236.723,258.609 238.235,257.498 241.400 C 256.437 244.424,256.650 245.295,259.100 247.944 C 259.595 248.479,260.000 249.037,260.000 249.184 C 260.000 251.257,269.962 251.667,275.000 249.801 C 280.489 247.768,282.065 247.210,283.600 246.757 C 284.590 246.465,285.850 245.996,286.400 245.715 C 286.950 245.435,287.727 245.204,288.126 245.202 C 288.526 245.201,289.197 245.016,289.617 244.791 C 292.453 243.273,294.349 251.184,292.579 257.145 C 292.014 259.050,289.829 262.809,289.100 263.133 C 288.935 263.207,288.800 263.467,288.800 263.713 C 288.800 264.695,283.497 269.095,281.261 269.967 C 280.018 270.451,278.460 271.081,277.800 271.366 C 274.883 272.626,273.237 272.942,270.016 272.861 C 268.155 272.814,266.535 272.646,266.416 272.488 C 266.162 272.149,264.055 271.148,261.800 270.296 C 260.920 269.963,259.767 269.524,259.238 269.322 C 256.304 268.197,250.402 270.730,250.400 273.114 C 250.400 273.606,249.286 275.582,248.773 276.000 C 248.419 276.288,246.400 284.715,246.400 285.906 C 246.400 286.288,245.774 287.303,245.009 288.162 C 244.244 289.021,243.300 290.166,242.909 290.707 C 240.906 293.482,236.047 297.804,234.510 298.178 C 233.900 298.327,232.692 298.912,231.826 299.479 L 230.252 300.509 229.327 299.355 C 227.677 297.295,227.466 295.907,227.696 288.614 C 228.042 277.648,227.529 275.961,223.236 273.962 C 221.000 272.920,216.130 273.234,215.667 274.450 C 215.593 274.643,215.278 274.800,214.967 274.800 C 214.655 274.800,214.400 275.070,214.400 275.400 C 214.400 275.730,214.239 276.000,214.043 276.000 C 213.222 276.000,213.073 278.176,212.811 293.926 C 212.489 313.326,212.703 314.895,215.904 316.550 C 219.383 318.350,229.422 316.976,236.309 313.759 C 237.909 313.011,239.371 312.400,239.558 312.400 C 240.734 312.400,244.454 310.241,246.151 308.573 C 246.838 307.898,248.030 306.962,248.800 306.492 C 249.570 306.022,250.560 305.085,251.000 304.410 C 251.440 303.735,252.469 302.716,253.288 302.146 C 254.106 301.575,254.883 300.769,255.015 300.354 C 255.146 299.939,255.422 299.600,255.627 299.600 C 255.832 299.600,256.000 299.391,256.000 299.136 C 256.000 298.881,256.677 297.756,257.505 296.636 C 259.028 294.577,259.505 293.697,260.430 291.248 C 260.710 290.504,261.405 289.387,261.973 288.765 L 263.005 287.635 271.003 287.671 C 279.892 287.712,280.917 287.542,285.800 285.219 C 287.560 284.382,289.405 283.573,289.900 283.421 C 290.395 283.270,290.800 282.978,290.800 282.773 C 290.800 282.568,290.967 282.400,291.172 282.400 C 291.376 282.400,292.211 281.770,293.027 281.000 C 293.844 280.230,294.689 279.600,294.906 279.600 C 295.717 279.600,301.711 273.046,302.699 271.077 C 303.265 269.951,304.030 268.705,304.400 268.308 C 305.042 267.619,305.743 266.331,306.420 264.600 C 309.037 257.897,308.527 241.617,305.536 236.433 C 304.660 234.914,305.262 231.330,306.851 228.600 C 307.235 227.940,307.937 226.635,308.410 225.700 C 308.884 224.765,309.435 224.000,309.636 224.000 C 309.836 224.000,310.000 223.807,310.000 223.571 C 310.000 223.336,310.225 222.916,310.500 222.639 C 310.775 222.362,311.524 220.530,312.165 218.568 C 312.805 216.606,313.765 214.067,314.299 212.926 C 316.447 208.332,316.460 191.317,314.320 186.396 C 313.794 185.188,313.129 183.390,312.841 182.400 C 311.657 178.324,310.737 176.280,308.819 173.466 C 307.709 171.836,306.800 170.289,306.800 170.028 C 306.800 169.766,305.900 168.600,304.800 167.437 C 303.700 166.274,302.792 165.160,302.783 164.961 C 302.774 164.763,302.197 164.150,301.502 163.600 C 300.807 163.050,299.165 161.565,297.852 160.300 C 296.540 159.035,295.320 158.000,295.142 158.000 C 293.794 158.000,293.447 155.911,293.357 147.253 C 293.268 138.562,292.882 135.988,291.360 133.935 C 290.567 132.866,288.800 129.278,288.800 128.738 C 288.800 128.156,282.514 120.800,282.016 120.800 C 281.857 120.800,280.892 120.035,279.872 119.100 C 277.283 116.728,277.192 116.665,275.400 116.054 C 274.520 115.753,272.984 115.014,271.987 114.411 C 270.991 113.808,269.461 113.088,268.587 112.810 C 267.714 112.532,266.409 112.056,265.686 111.752 C 264.964 111.448,264.143 111.200,263.861 111.200 C 263.339 111.200,261.200 109.178,261.200 108.684 C 261.200 108.209,258.708 104.241,257.757 103.200 C 257.254 102.650,256.577 101.570,256.252 100.800 C 255.927 100.030,254.792 98.475,253.730 97.345 C 252.669 96.215,251.457 94.846,251.038 94.303 C 250.619 93.759,249.695 93.002,248.985 92.620 C 248.276 92.238,247.300 91.391,246.818 90.739 C 246.335 90.086,244.919 88.904,243.670 88.113 C 242.422 87.321,240.984 86.265,240.475 85.766 C 239.505 84.815,237.409 84.096,232.400 82.993 C 230.750 82.630,227.960 81.897,226.200 81.365 C 222.882 80.361,219.838 80.129,218.800 80.800 M173.148 140.641 C 171.617 141.451,168.800 144.383,168.800 145.167 C 168.800 145.537,168.638 146.011,168.441 146.220 C 168.243 146.429,168.012 147.899,167.928 149.487 C 167.717 153.484,166.534 154.800,163.155 154.800 C 158.501 154.800,153.600 159.166,153.600 163.312 C 153.600 165.094,152.904 167.176,151.871 168.489 C 151.523 168.930,150.478 169.273,148.964 169.442 C 147.664 169.587,145.993 169.952,145.251 170.253 C 144.509 170.554,143.488 170.800,142.982 170.800 C 140.112 170.800,137.921 177.089,139.641 180.389 C 141.128 183.241,142.356 183.904,148.200 185.009 C 150.926 185.524,151.563 185.804,152.500 186.892 L 153.600 188.170 153.598 198.985 C 153.595 213.651,153.795 213.166,147.400 213.986 C 142.922 214.560,140.973 215.396,140.373 217.000 C 140.126 217.660,139.654 218.853,139.324 219.651 C 138.597 221.407,139.575 225.501,141.066 226.940 C 141.930 227.774,147.557 229.151,150.238 229.185 C 152.045 229.207,153.600 231.759,153.600 234.700 C 153.600 239.224,157.143 242.719,162.400 243.381 C 163.610 243.533,164.902 243.743,165.271 243.847 C 166.702 244.249,168.266 248.191,168.510 252.008 C 168.643 254.093,169.605 256.000,170.524 256.000 C 170.714 256.000,171.640 256.554,172.582 257.230 C 176.638 260.143,182.293 256.926,182.807 251.414 C 183.203 247.173,184.491 244.976,187.200 243.922 C 189.861 242.887,210.000 243.697,210.000 244.839 C 210.000 245.038,210.205 245.200,210.456 245.200 C 211.739 245.200,213.200 248.642,213.200 251.665 C 213.200 256.896,218.752 259.975,223.224 257.224 C 224.317 256.551,225.299 256.000,225.406 256.000 C 226.432 256.000,227.238 254.096,227.570 250.883 C 228.116 245.611,229.119 244.263,233.015 243.571 C 239.308 242.453,241.286 240.643,242.041 235.309 C 242.611 231.286,243.736 229.200,245.336 229.201 C 254.142 229.206,258.122 225.454,256.258 218.903 C 255.232 215.297,254.524 214.831,248.802 214.000 C 241.691 212.968,242.240 214.094,242.059 200.179 L 241.910 188.773 242.949 187.273 C 243.929 185.859,244.199 185.731,247.694 185.025 C 254.678 183.613,256.800 181.748,256.800 177.021 C 256.800 173.887,254.657 170.856,252.400 170.798 C 251.850 170.783,250.950 170.514,250.400 170.200 C 249.850 169.886,248.881 169.622,248.246 169.614 C 244.124 169.564,242.000 167.205,242.000 162.678 C 242.000 160.873,241.820 159.948,241.400 159.600 C 241.070 159.326,240.800 158.931,240.800 158.722 C 240.800 157.487,235.159 154.800,232.566 154.800 C 229.390 154.800,227.896 152.956,227.558 148.619 C 226.884 139.941,217.763 136.812,214.049 143.984 C 213.541 144.966,213.042 146.766,212.942 147.984 C 212.393 154.613,211.977 154.800,197.743 154.800 L 187.508 154.800 185.589 153.755 C 183.555 152.649,183.214 152.020,183.205 149.360 C 183.197 146.962,181.830 143.155,180.400 141.547 C 179.299 140.310,174.831 139.751,173.148 140.641 M214.400 170.200 C 215.610 170.525,217.991 170.793,219.692 170.795 C 223.539 170.801,225.585 171.556,226.506 173.309 C 227.660 175.503,227.502 226.003,226.338 227.056 C 223.612 229.523,171.694 229.696,169.200 227.246 C 168.323 226.385,168.292 174.296,169.168 172.661 C 169.896 171.300,171.654 170.814,176.000 170.771 C 177.870 170.753,180.120 170.501,181.000 170.211 C 183.459 169.401,211.387 169.391,214.400 170.200 " stroke="none" fill="#fbf2f2" fill-rule="evenodd"></path><path id="path1" d="M13.713 10.720 C 11.366 10.856,10.345 11.821,9.856 14.365 C 9.442 16.521,9.563 384.779,9.979 386.560 C 10.179 387.419,10.721 388.499,11.183 388.960 L 12.022 389.800 198.059 389.903 L 384.096 390.006 385.448 389.170 C 386.192 388.711,386.800 388.025,386.800 387.647 C 386.800 387.269,386.982 386.778,387.205 386.555 C 387.476 386.284,387.609 325.163,387.609 200.474 C 387.609 -1.089,387.766 12.914,385.494 11.425 C 384.620 10.852,23.294 10.167,13.713 10.720 M178.567 81.186 C 179.575 81.618,180.400 82.115,180.400 82.290 C 180.400 82.465,180.805 83.065,181.300 83.624 C 183.161 85.723,183.200 85.968,183.200 95.394 L 183.200 104.398 181.990 106.960 C 178.480 114.388,169.469 111.691,167.943 102.756 C 167.052 97.537,165.270 97.463,159.317 102.399 C 159.051 102.620,158.646 102.800,158.417 102.800 C 158.188 102.800,158.000 102.980,158.000 103.200 C 158.000 103.420,157.730 103.600,157.400 103.600 C 157.070 103.600,156.795 103.735,156.789 103.900 C 156.783 104.065,155.890 105.162,154.805 106.337 C 153.719 107.512,152.722 108.817,152.588 109.237 C 152.455 109.657,152.178 110.000,151.973 110.000 C 151.768 110.000,151.600 110.205,151.600 110.456 C 151.600 110.707,151.330 111.112,150.999 111.356 C 150.411 111.791,149.032 115.027,148.423 117.400 C 148.088 118.709,146.648 121.428,145.759 122.431 C 145.452 122.779,145.200 123.274,145.200 123.531 C 145.200 123.789,144.930 124.000,144.600 124.000 C 144.270 124.000,144.000 124.151,144.000 124.336 C 144.000 124.905,141.190 125.550,136.977 125.948 C 133.061 126.317,130.982 127.034,129.169 128.641 C 128.821 128.948,128.369 129.200,128.164 129.200 C 127.959 129.200,127.307 129.650,126.713 130.200 C 126.120 130.750,125.447 131.200,125.217 131.200 C 124.988 131.200,124.794 131.335,124.787 131.500 C 124.779 131.665,123.972 132.685,122.993 133.768 C 122.014 134.850,120.741 136.650,120.163 137.768 C 119.586 138.885,118.786 140.160,118.386 140.600 C 117.294 141.799,117.190 146.484,118.229 147.632 C 118.920 148.395,119.291 148.454,122.196 148.254 C 123.958 148.133,127.020 147.924,129.000 147.789 L 132.600 147.545 135.084 149.037 C 138.847 151.296,139.923 155.158,137.649 158.240 C 134.956 161.889,133.684 162.622,129.352 163.020 C 125.049 163.416,121.667 164.338,118.287 166.036 C 116.575 166.896,114.907 167.600,114.579 167.600 C 112.586 167.600,101.600 176.913,101.600 178.604 C 101.600 178.711,100.936 179.722,100.125 180.852 C 98.794 182.704,96.443 188.492,96.409 190.000 C 96.401 190.330,96.098 191.140,95.736 191.800 C 94.501 194.049,94.732 204.228,96.109 208.200 C 96.719 209.960,97.509 212.300,97.864 213.400 C 98.508 215.393,99.657 217.581,100.548 218.511 C 100.806 218.780,101.622 219.953,102.361 221.117 C 103.100 222.281,104.220 223.500,104.849 223.825 C 105.478 224.151,106.294 224.876,106.662 225.438 C 107.030 225.999,108.336 227.144,109.565 227.981 C 110.794 228.818,112.160 229.911,112.600 230.409 C 114.151 232.167,123.974 235.565,127.600 235.599 C 136.137 235.678,141.101 241.345,137.520 246.924 C 135.800 249.604,133.255 251.200,130.698 251.200 C 127.262 251.200,120.016 249.944,119.000 249.172 C 118.780 249.005,117.430 248.480,116.000 248.005 C 113.408 247.146,112.475 246.789,110.200 245.788 C 105.112 243.549,102.800 245.371,102.800 251.617 C 102.800 256.032,103.375 258.549,104.807 260.400 C 105.403 261.170,106.175 262.356,106.522 263.036 C 106.870 263.716,107.628 264.706,108.207 265.236 C 108.786 265.766,109.839 266.774,110.546 267.475 C 111.254 268.176,112.995 269.229,114.416 269.813 C 115.837 270.398,117.478 271.129,118.062 271.438 C 118.646 271.747,119.465 272.000,119.882 272.000 C 120.299 272.000,120.847 272.207,121.101 272.461 C 121.390 272.750,122.875 272.897,125.081 272.857 C 128.647 272.791,129.300 272.589,134.200 270.043 C 136.341 268.931,142.473 269.159,143.802 270.400 C 145.768 272.236,147.970 278.049,149.526 285.512 C 150.076 288.150,157.601 296.272,161.077 297.980 C 162.135 298.500,163.508 299.278,164.129 299.710 L 165.257 300.495 166.385 299.414 C 167.970 297.896,168.144 296.748,168.027 288.600 C 167.895 279.422,168.531 276.274,170.744 275.153 C 171.325 274.859,172.430 274.237,173.200 273.772 C 173.970 273.307,174.780 272.976,175.000 273.038 C 175.220 273.099,176.431 273.353,177.691 273.601 C 182.780 274.605,183.109 275.919,183.202 295.635 C 183.295 315.474,182.922 316.697,176.555 317.415 C 172.938 317.823,161.550 315.390,159.600 313.793 C 159.270 313.522,158.280 313.083,157.400 312.817 C 154.972 312.081,150.790 309.902,150.054 308.988 C 149.694 308.541,148.690 307.641,147.821 306.988 C 145.120 304.956,140.777 300.388,139.704 298.451 C 139.140 297.433,138.565 296.510,138.426 296.400 C 137.827 295.926,135.600 292.075,135.600 291.514 C 135.600 291.175,135.330 290.674,135.000 290.400 C 134.670 290.126,134.400 289.737,134.400 289.534 C 134.400 287.866,133.214 287.627,125.183 287.675 C 117.249 287.722,113.267 287.245,112.346 286.135 C 112.102 285.841,111.637 285.600,111.313 285.600 C 110.989 285.600,110.246 285.349,109.662 285.043 C 109.078 284.737,107.811 284.159,106.847 283.759 C 105.883 283.358,104.485 282.439,103.740 281.715 C 102.995 280.992,102.228 280.400,102.036 280.400 C 101.843 280.400,101.582 280.130,101.455 279.800 C 101.329 279.470,100.975 279.200,100.669 279.200 C 100.363 279.200,99.502 278.546,98.756 277.747 C 98.010 276.948,96.455 275.328,95.300 274.147 C 94.145 272.966,93.200 271.707,93.200 271.350 C 93.200 270.992,92.275 269.191,91.145 267.349 C 87.905 262.064,86.478 250.497,88.192 243.400 C 88.511 242.080,88.778 240.598,88.786 240.106 C 88.794 239.614,89.355 238.310,90.033 237.207 C 91.592 234.674,91.214 231.897,88.807 228.200 C 88.377 227.540,87.752 226.399,87.418 225.665 C 87.085 224.930,86.269 223.644,85.606 222.807 C 84.943 221.970,84.400 221.038,84.400 220.737 C 84.400 220.435,84.018 219.201,83.550 217.994 C 83.083 216.787,82.614 215.221,82.508 214.514 C 82.402 213.807,82.065 213.020,81.758 212.765 C 81.451 212.510,81.200 211.883,81.200 211.370 C 81.200 210.857,81.028 210.024,80.818 209.519 C 79.303 205.874,79.878 189.448,81.607 187.000 C 81.895 186.592,83.292 181.970,83.784 179.800 C 84.118 178.324,85.634 175.143,86.263 174.600 C 86.517 174.380,87.287 173.120,87.973 171.800 C 88.659 170.480,90.072 168.500,91.113 167.400 C 92.153 166.300,93.259 164.905,93.570 164.300 C 93.881 163.695,94.375 163.200,94.668 163.200 C 94.960 163.200,95.200 163.020,95.200 162.800 C 95.200 162.580,95.353 162.400,95.540 162.400 C 95.727 162.400,97.302 161.050,99.040 159.400 L 102.200 156.400 102.400 153.900 C 102.510 152.525,102.487 150.263,102.349 148.873 C 101.878 144.138,103.094 136.341,104.731 133.600 C 105.190 132.830,105.857 131.570,106.213 130.800 C 107.825 127.308,108.293 126.566,109.700 125.262 C 110.525 124.497,111.200 123.727,111.200 123.550 C 111.200 123.177,113.456 120.800,113.810 120.800 C 113.940 120.800,114.861 120.035,115.856 119.100 C 117.489 117.565,118.300 117.012,120.495 115.939 C 120.877 115.753,121.390 115.600,121.637 115.600 C 121.883 115.600,122.830 115.102,123.742 114.494 C 124.654 113.886,127.020 112.865,129.000 112.226 C 132.730 111.022,133.844 110.362,134.445 109.000 C 134.871 108.034,135.366 107.249,137.208 104.614 C 137.983 103.506,138.973 101.900,139.408 101.044 C 139.844 100.188,141.145 98.478,142.301 97.244 C 143.456 96.010,144.731 94.640,145.133 94.200 C 146.195 93.038,147.549 92.000,148.005 92.000 C 148.222 92.000,148.400 91.834,148.400 91.631 C 148.400 91.031,150.547 89.062,152.131 88.209 C 152.939 87.774,153.600 87.279,153.600 87.109 C 153.600 86.939,153.870 86.800,154.200 86.800 C 154.530 86.800,154.800 86.638,154.800 86.440 C 154.800 85.495,158.468 84.030,163.400 83.004 C 165.160 82.639,167.950 81.916,169.600 81.398 C 173.348 80.222,176.163 80.155,178.567 81.186 M226.200 81.365 C 227.960 81.897,230.750 82.630,232.400 82.993 C 237.409 84.096,239.505 84.815,240.475 85.766 C 240.984 86.265,242.422 87.321,243.670 88.113 C 244.919 88.904,246.335 90.086,246.818 90.739 C 247.300 91.391,248.276 92.238,248.985 92.620 C 249.695 93.002,250.619 93.759,251.038 94.303 C 251.457 94.846,252.669 96.215,253.730 97.345 C 254.792 98.475,255.927 100.030,256.252 100.800 C 256.577 101.570,257.254 102.650,257.757 103.200 C 258.708 104.241,261.200 108.209,261.200 108.684 C 261.200 109.178,263.339 111.200,263.861 111.200 C 264.143 111.200,264.964 111.448,265.686 111.752 C 266.409 112.056,267.714 112.532,268.587 112.810 C 269.461 113.088,270.991 113.808,271.987 114.411 C 272.984 115.014,274.520 115.753,275.400 116.054 C 277.192 116.665,277.283 116.728,279.872 119.100 C 280.892 120.035,281.857 120.800,282.016 120.800 C 282.514 120.800,288.800 128.156,288.800 128.738 C 288.800 129.278,290.567 132.866,291.360 133.935 C 292.882 135.988,293.268 138.562,293.357 147.253 C 293.447 155.911,293.794 158.000,295.142 158.000 C 295.320 158.000,296.540 159.035,297.852 160.300 C 299.165 161.565,300.807 163.050,301.502 163.600 C 302.197 164.150,302.774 164.763,302.783 164.961 C 302.792 165.160,303.700 166.274,304.800 167.437 C 305.900 168.600,306.800 169.766,306.800 170.028 C 306.800 170.289,307.709 171.836,308.819 173.466 C 310.737 176.280,311.657 178.324,312.841 182.400 C 313.129 183.390,313.794 185.188,314.320 186.396 C 316.460 191.317,316.447 208.332,314.299 212.926 C 313.765 214.067,312.805 216.606,312.165 218.568 C 311.524 220.530,310.775 222.362,310.500 222.639 C 310.225 222.916,310.000 223.336,310.000 223.571 C 310.000 223.807,309.836 224.000,309.636 224.000 C 309.435 224.000,308.884 224.765,308.410 225.700 C 307.937 226.635,307.235 227.940,306.851 228.600 C 305.262 231.330,304.660 234.914,305.536 236.433 C 308.527 241.617,309.037 257.897,306.420 264.600 C 305.743 266.331,305.042 267.619,304.400 268.308 C 304.030 268.705,303.265 269.951,302.699 271.077 C 301.711 273.046,295.717 279.600,294.906 279.600 C 294.689 279.600,293.844 280.230,293.027 281.000 C 292.211 281.770,291.376 282.400,291.172 282.400 C 290.967 282.400,290.800 282.568,290.800 282.773 C 290.800 282.978,290.395 283.270,289.900 283.421 C 289.405 283.573,287.560 284.382,285.800 285.219 C 280.917 287.542,279.892 287.712,271.003 287.671 L 263.005 287.635 261.973 288.765 C 261.405 289.387,260.710 290.504,260.430 291.248 C 259.505 293.697,259.028 294.577,257.505 296.636 C 256.677 297.756,256.000 298.881,256.000 299.136 C 256.000 299.391,255.832 299.600,255.627 299.600 C 255.422 299.600,255.146 299.939,255.015 300.354 C 254.883 300.769,254.106 301.575,253.288 302.146 C 252.469 302.716,251.440 303.735,251.000 304.410 C 250.560 305.085,249.570 306.022,248.800 306.492 C 248.030 306.962,246.838 307.898,246.151 308.573 C 244.454 310.241,240.734 312.400,239.558 312.400 C 239.371 312.400,237.909 313.011,236.309 313.759 C 229.422 316.976,219.383 318.350,215.904 316.550 C 212.703 314.895,212.489 313.326,212.811 293.926 C 213.073 278.176,213.222 276.000,214.043 276.000 C 214.239 276.000,214.400 275.730,214.400 275.400 C 214.400 275.070,214.655 274.800,214.967 274.800 C 215.278 274.800,215.593 274.643,215.667 274.450 C 216.130 273.234,221.000 272.920,223.236 273.962 C 227.529 275.961,228.042 277.648,227.696 288.614 C 227.466 295.907,227.677 297.295,229.327 299.355 L 230.252 300.509 231.826 299.479 C 232.692 298.912,233.900 298.327,234.510 298.178 C 236.047 297.804,240.906 293.482,242.909 290.707 C 243.300 290.166,244.244 289.021,245.009 288.162 C 245.774 287.303,246.400 286.288,246.400 285.906 C 246.400 284.715,248.419 276.288,248.773 276.000 C 249.286 275.582,250.400 273.606,250.400 273.114 C 250.402 270.730,256.304 268.197,259.238 269.322 C 259.767 269.524,260.920 269.963,261.800 270.296 C 264.055 271.148,266.162 272.149,266.416 272.488 C 266.535 272.646,268.155 272.814,270.016 272.861 C 273.237 272.942,274.883 272.626,277.800 271.366 C 278.460 271.081,280.018 270.451,281.261 269.967 C 283.497 269.095,288.800 264.695,288.800 263.713 C 288.800 263.467,288.935 263.207,289.100 263.133 C 289.829 262.809,292.014 259.050,292.579 257.145 C 294.349 251.184,292.453 243.273,289.617 244.791 C 289.197 245.016,288.526 245.201,288.126 245.202 C 287.727 245.204,286.950 245.435,286.400 245.715 C 285.850 245.996,284.590 246.465,283.600 246.757 C 282.065 247.210,280.489 247.768,275.000 249.801 C 269.962 251.667,260.000 251.257,260.000 249.184 C 260.000 249.037,259.595 248.479,259.100 247.944 C 256.650 245.295,256.437 244.424,257.498 241.400 C 258.609 238.235,260.998 236.723,266.069 235.976 C 271.007 235.249,276.471 233.954,278.600 233.007 C 279.260 232.714,280.201 232.322,280.692 232.137 C 282.974 231.275,294.000 221.542,294.000 220.389 C 294.000 220.151,294.528 219.391,295.174 218.700 C 296.747 217.017,297.336 215.678,299.352 209.200 C 301.142 203.446,301.445 194.792,299.958 191.905 C 299.761 191.523,299.600 190.839,299.600 190.386 C 299.600 189.932,299.356 189.074,299.057 188.480 C 298.759 187.886,298.400 186.799,298.260 186.063 C 297.959 184.483,296.277 181.020,295.369 180.112 C 295.017 179.760,294.270 178.736,293.709 177.836 C 291.921 174.970,286.526 170.155,283.400 168.636 C 275.487 164.792,272.865 163.786,269.800 163.419 C 262.406 162.532,262.074 162.423,259.840 160.153 C 253.978 154.197,257.949 147.065,266.741 147.758 C 277.260 148.587,277.056 148.592,277.806 147.447 C 280.457 143.401,274.376 132.615,267.331 128.867 C 266.853 128.613,266.223 128.172,265.931 127.887 C 264.871 126.854,261.714 126.041,257.724 125.773 C 253.278 125.476,251.542 124.787,250.728 123.001 C 250.477 122.450,250.120 122.000,249.936 122.000 C 249.751 122.000,249.600 121.730,249.600 121.400 C 249.600 121.070,249.424 120.800,249.208 120.800 C 248.634 120.800,247.386 118.127,246.779 115.600 C 246.489 114.390,246.015 113.116,245.726 112.769 C 245.437 112.421,245.200 112.008,245.200 111.851 C 245.200 111.286,241.834 106.962,240.022 105.200 C 237.693 102.935,237.264 102.613,233.553 100.343 L 230.517 98.485 229.258 99.282 C 228.243 99.925,228.000 100.346,228.000 101.462 C 228.000 104.811,225.213 110.000,223.415 110.000 C 223.131 110.000,222.674 110.270,222.400 110.600 C 221.539 111.637,216.851 110.908,215.463 109.520 C 213.068 107.125,211.396 91.956,212.929 86.534 C 213.456 84.669,216.428 81.203,217.508 81.194 C 217.889 81.191,218.470 81.013,218.800 80.800 C 219.838 80.129,222.882 80.361,226.200 81.365 M177.427 140.437 C 178.732 140.677,180.070 141.177,180.400 141.547 C 181.830 143.155,183.197 146.962,183.205 149.360 C 183.214 152.020,183.555 152.649,185.589 153.755 L 187.508 154.800 197.743 154.800 C 211.977 154.800,212.393 154.613,212.942 147.984 C 213.596 140.069,220.775 137.421,225.708 143.275 C 227.206 145.052,227.303 145.331,227.558 148.619 C 227.896 152.956,229.390 154.800,232.566 154.800 C 235.159 154.800,240.800 157.487,240.800 158.722 C 240.800 158.931,241.070 159.326,241.400 159.600 C 241.820 159.948,242.000 160.873,242.000 162.678 C 242.000 167.205,244.124 169.564,248.246 169.614 C 248.881 169.622,249.850 169.886,250.400 170.200 C 250.950 170.514,251.850 170.783,252.400 170.798 C 254.657 170.856,256.800 173.887,256.800 177.021 C 256.800 181.748,254.678 183.613,247.694 185.025 C 244.199 185.731,243.929 185.859,242.949 187.273 L 241.910 188.773 242.059 200.179 C 242.240 214.094,241.691 212.968,248.802 214.000 C 254.524 214.831,255.232 215.297,256.258 218.903 C 258.122 225.454,254.142 229.206,245.336 229.201 C 243.736 229.200,242.611 231.286,242.041 235.309 C 241.286 240.643,239.308 242.453,233.015 243.571 C 229.119 244.263,228.116 245.611,227.570 250.883 C 227.238 254.096,226.432 256.000,225.406 256.000 C 225.299 256.000,224.317 256.551,223.224 257.224 C 218.752 259.975,213.200 256.896,213.200 251.665 C 213.200 248.642,211.739 245.200,210.456 245.200 C 210.205 245.200,210.000 245.038,210.000 244.839 C 210.000 243.697,189.861 242.887,187.200 243.922 C 184.491 244.976,183.203 247.173,182.807 251.414 C 182.293 256.926,176.638 260.143,172.582 257.230 C 171.640 256.554,170.714 256.000,170.524 256.000 C 169.605 256.000,168.643 254.093,168.510 252.008 C 168.266 248.191,166.702 244.249,165.271 243.847 C 164.902 243.743,163.610 243.533,162.400 243.381 C 157.143 242.719,153.600 239.224,153.600 234.700 C 153.600 231.759,152.045 229.207,150.238 229.185 C 147.557 229.151,141.930 227.774,141.066 226.940 C 139.575 225.501,138.597 221.407,139.324 219.651 C 139.654 218.853,140.126 217.660,140.373 217.000 C 140.973 215.396,142.922 214.560,147.400 213.986 C 153.795 213.166,153.595 213.651,153.598 198.985 L 153.600 188.170 152.500 186.892 C 151.563 185.804,150.926 185.524,148.200 185.009 C 142.356 183.904,141.128 183.241,139.641 180.389 C 137.921 177.089,140.112 170.800,142.982 170.800 C 143.488 170.800,144.509 170.554,145.251 170.253 C 145.993 169.952,147.664 169.587,148.964 169.442 C 150.478 169.273,151.523 168.930,151.871 168.489 C 152.904 167.176,153.600 165.094,153.600 163.312 C 153.600 159.166,158.501 154.800,163.155 154.800 C 166.534 154.800,167.717 153.484,167.928 149.487 C 168.012 147.899,168.243 146.429,168.441 146.220 C 168.638 146.011,168.800 145.537,168.800 145.167 C 168.800 143.952,173.069 140.197,174.627 140.042 C 174.861 140.019,176.121 140.196,177.427 140.437 M181.000 170.211 C 180.120 170.501,177.870 170.753,176.000 170.771 C 167.933 170.850,168.600 168.197,168.600 200.189 C 168.600 230.320,168.221 227.548,172.446 228.318 C 176.138 228.991,220.051 228.949,223.263 228.270 C 227.529 227.368,227.149 230.071,227.168 200.460 C 227.188 169.045,227.632 170.807,219.692 170.795 C 217.991 170.793,215.610 170.525,214.400 170.200 C 211.387 169.391,183.459 169.401,181.000 170.211 " stroke="none" fill="#e21219" fill-rule="evenodd"></path></g></svg>